<svg width="500" height="500" viewBox="0 0 500 500" fill="none" xmlns="http://www.w3.org/2000/svg">
<g clip-path="url(#clip0_91_2)">
<path d="M407.511 210.74H93.4889C50.1407 210.74 15 245.885 15 289.238V289.26C15 332.614 50.1407 367.759 93.4889 367.759H407.511C450.859 367.759 486 332.614 486 289.26V289.238C486 245.885 450.859 210.74 407.511 210.74Z" fill="#B7ADF8"/>
<path d="M211.256 328.501C276.279 328.501 328.992 275.783 328.992 210.751C328.992 145.719 276.279 93 211.256 93C146.232 93 93.5194 145.719 93.5194 210.751C93.5194 275.783 146.232 328.501 211.256 328.501Z" fill="#B7ADF8"/>
<path d="M328.989 289.249C372.337 289.249 407.478 254.104 407.478 210.751C407.478 167.397 372.337 132.252 328.989 132.252C285.641 132.252 250.5 167.397 250.5 210.751C250.5 254.104 285.641 289.249 328.989 289.249Z" fill="#B7ADF8"/>
<path d="M211.256 407C276.279 407 328.992 354.281 328.992 289.249C328.992 224.217 276.279 171.499 211.256 171.499C146.232 171.499 93.5194 224.217 93.5194 289.249C93.5194 354.281 146.232 407 211.256 407Z" fill="#B7ADF8"/>
<path d="M328.989 391.298C363.668 391.298 391.781 363.182 391.781 328.499C391.781 293.815 363.668 265.699 328.989 265.699C294.31 265.699 266.197 293.815 266.197 328.499C266.197 363.182 294.31 391.298 328.989 391.298Z" fill="#B7ADF8"/>
</g>
<path d="M345.584 337.296C339.344 337.296 333.872 335.808 329.168 332.832C324.56 329.856 320.96 325.68 318.368 320.304C315.872 314.832 314.624 308.4 314.624 301.008C314.624 293.52 315.872 287.088 318.368 281.712C320.96 276.24 324.56 272.064 329.168 269.184C333.872 266.208 339.344 264.72 345.584 264.72C351.056 264.72 355.856 265.92 359.984 268.32C364.208 270.72 367.328 274.032 369.344 278.256V239.376C369.344 235.44 371.312 233.472 375.248 233.472C379.088 233.472 381.008 235.44 381.008 239.376V330.96C381.008 334.992 379.088 337.008 375.248 337.008C371.408 337.008 369.488 334.992 369.488 330.96V323.472C367.376 327.792 364.208 331.2 359.984 333.696C355.856 336.096 351.056 337.296 345.584 337.296ZM348.032 327.936C354.56 327.936 359.792 325.632 363.728 321.024C367.664 316.32 369.632 309.648 369.632 301.008C369.632 292.272 367.664 285.6 363.728 280.992C359.792 276.384 354.56 274.08 348.032 274.08C341.408 274.08 336.128 276.384 332.192 280.992C328.352 285.6 326.432 292.272 326.432 301.008C326.432 309.648 328.352 316.32 332.192 321.024C336.128 325.632 341.408 327.936 348.032 327.936Z" fill="white"/>
<path d="M212.72 342.592C198.896 342.592 185.84 340.96 173.552 337.696C161.456 334.24 150.992 329.248 142.16 322.72C139.088 320.608 137.264 318.112 136.688 315.232C136.112 312.352 136.4 309.664 137.552 307.168C138.896 304.672 140.816 303.04 143.312 302.272C145.808 301.312 148.688 301.888 151.952 304C160.592 310.336 169.808 314.848 179.6 317.536C189.392 320.224 200.432 321.568 212.72 321.568C230 321.568 242.768 318.4 251.024 312.064C259.472 305.536 263.696 296.992 263.696 286.432C263.696 277.984 260.624 271.264 254.48 266.272C248.528 261.28 238.448 257.344 224.24 254.464L194.288 248.416C176.24 244.576 162.704 238.336 153.68 229.696C144.848 220.864 140.432 209.152 140.432 194.56C140.432 182.464 143.504 171.904 149.648 162.88C155.984 153.856 164.72 146.848 175.856 141.856C186.992 136.864 199.856 134.368 214.448 134.368C226.544 134.368 237.776 136.096 248.144 139.552C258.704 142.816 268.208 147.808 276.656 154.528C279.344 156.64 280.88 159.136 281.264 162.016C281.84 164.704 281.456 167.2 280.112 169.504C278.768 171.808 276.848 173.344 274.352 174.112C271.856 174.688 268.88 173.92 265.424 171.808C257.744 165.856 249.68 161.632 241.232 159.136C232.976 156.64 223.952 155.392 214.16 155.392C198.992 155.392 186.896 158.944 177.872 166.048C168.848 172.96 164.336 182.176 164.336 193.696C164.336 202.912 167.12 210.208 172.688 215.584C178.448 220.96 187.76 224.896 200.624 227.392L230.576 233.728C249.968 237.76 264.272 243.904 273.488 252.16C282.896 260.224 287.6 271.264 287.6 285.28C287.6 296.608 284.528 306.592 278.384 315.232C272.432 323.872 263.792 330.592 252.464 335.392C241.328 340.192 228.08 342.592 212.72 342.592Z" fill="white"/>
<defs>
<clipPath id="clip0_91_2">
<rect width="471" height="314" fill="white" transform="translate(15 93)"/>
</clipPath>
</defs>
</svg>
